<svg version="1.1" xmlns="http://www.w3.org/2000/svg" viewBox="0 0 148 148" xml:space="preserve"><path d="M54.8 84.2c-3.1 4.9-6.2 9.9-8.4 15.2-2 4.9-.4 9.6 3.6 13 3.8 3.3 8.2 4.4 12.9 2.2 4.6-2.2 7.5-5.9 7.6-12.3-1.1-6.6-5.6-12.7-9.8-18.7-1.5-2.2-4.5-1.6-5.9.6zm3.2 22.9c-2.5-.1-4.1-1.6-3.8-4.2.4-2.8 2.2-7 3.8-6.8 2.6.4 3.5 4.3 4.3 6.9-.4 2.8-1.8 4.2-4.3 4.1zM37.2 48.8c-.1 4 1.9 5.8 5.8 5.8h30.5c3.6 0 5.6-1.7 5.6-5.5v-14c0-4-1.9-5.7-5.8-5.6-10.2.1-20.3.1-30.5 0-4.1 0-5.7 1.9-5.6 5.8.1 4.5.1 9 0 13.5zm8.3-7.7c.1-2.5.7-3.5 3.3-3.4 6.3.2 12.6.2 18.9 0 3.7-.2 2.9 2.2 2.9 4.2s.8 4.5-2.9 4.2c-3.3-.2-6.6-.1-9.9-.1-2.5 0-5-.3-7.5.1-4.2.6-5-1.3-4.8-5z"/><path d="M134.8 40.6h-16c-9.8 0-14.6 4.9-14.7 14.7v37.5c0 3.7-1.1 6-5.3 6.1-5 .1-3-3.5-3-5.6-.1-22.2 0-44.3-.1-66.5 0-9.2-5.1-14.1-14.3-14.1H34.9c-8.9 0-14.1 5-14.4 13.7-.1 3.8 0 7.7 0 11.5 0 30 0 60-.1 90 0 1.8 1.4 4.7-2.5 4.6-3-.1-5.6.7-5.5 4.2.1 3.8 3.1 4.1 6.1 4.1h80c2.8 0 5.2-.8 5.4-3.9.2-3.1-1.9-4.6-4.8-4.4-3.1.2-3.6-1.2-3.5-3.8.1-5.8.2-11.7 0-17.5-.1-3.2 1-3.8 4-3.9 8.3-.5 12.7-5.6 12.8-14.1.1-8 .1-16-.1-24-.1-2.8.8-3.6 3.6-3.6 7.4-.2 13.1-4.9 13-11.7 0-4.9 2-5.4 5.8-5.1 3 .3 5.5-.8 5.4-4.3-.1-3.2-2.5-3.9-5.3-3.9zM29 26.6c0-3.8 1.7-5.6 5.4-5.6h47.4c3.9 0 5.6 1.9 5.6 5.9-.1 10.8-.2 21.6 0 32.4 0 2.9-1 3.5-3.7 3.5-8.6-.2-17.3-.1-26-.1-8.5 0-17-.1-25.5.1-2.6 0-3.4-.7-3.4-3.3.3-11 .3-22 .2-32.9zm54.5 105.9c-16.8-.2-33.6-.2-50.4 0-3.4 0-4.1-1-4.1-4.2.1-17.8.1-35.6 0-53.4 0-3.1.9-3.9 4-3.9 17 .1 33.9.1 50.9 0 2.9 0 3.6 1 3.6 3.7-.1 9.1-.1 18.3-.1 27.4 0 8.8-.1 17.6.1 26.5-.1 3.1-1 3.9-4 3.9zm31.8-75.2c-2.4.1-3.1-.8-3-3.2.2-3.7 2-5.4 5.9-5.4 2.2-.4 2.7.9 2.7 3.1-.2 3.8-2 5.4-5.6 5.5z"/></svg>
