<svg xmlns="http://www.w3.org/2000/svg" viewBox="0 0 1000 1000" xml:space="preserve" fill="currentColor"><path d="M402 181.3v343.3c0 54 43.9 97.8 98 97.8 54 0 98-43.9 98-97.8V181.3c0-54-43.9-97.8-98-97.8-54 0-98 43.9-98 97.8zm391.4 362.1c-9 141.3-117.8 255.5-256.6 272.9v100.3h122.4c20.4 0 36.9 16.3 36.9 36.8 0 20.3-16.3 36.8-36.9 36.8H340.9c-20.4 0-36.9-16.3-36.9-36.8 0-20.3 16.3-36.8 36.9-36.8h122.4V816.2c-138.8-17.3-247.6-131.5-256.6-272.9-.4-2.2-.6-4.4-.6-6.7V414.4c0-20.4 16.3-36.9 36.8-36.9 20.3 0 36.8 16.4 36.8 36.9v110C279.5 646.2 378.2 745 500 745c121.8 0 220.5-98.8 220.5-220.7v-110c0-20.4 16.3-36.9 36.8-36.9 20.3 0 36.8 16.4 36.8 36.9v122.3c-.1 2.3-.3 4.6-.7 6.8zM328.5 181.3C328.5 86.7 405.5 10 500 10c94.7 0 171.5 76.7 171.5 171.3v343.3c0 94.6-77 171.3-171.5 171.3-94.7 0-171.5-76.7-171.5-171.3V181.3z"/></svg>
